<svg xmlns="http://www.w3.org/2000/svg" viewBox="0 0 1500 500" width="1500" height="500"><defs>
    <linearGradient id="bg" x1="0" y1="0" x2="1" y2="1"><stop offset="0" stop-color="#1b2140"/><stop offset="1" stop-color="#2a3a7a"/></linearGradient>
    <radialGradient id="node" cx="0.4" cy="0.35" r="0.7"><stop offset="0" stop-color="#ffe9a8"/><stop offset="1" stop-color="#f5b942"/></radialGradient>
  </defs><rect width="1500" height="500" fill="url(#bg)"/><circle cx="1320" cy="80" r="360" fill="#f5b942" fill-opacity="0.07"/><circle cx="180" cy="520" r="300" fill="#f5b942" fill-opacity="0.06"/><g transform="translate(300 250) scale(0.62) translate(-256 -256)"><rect x="106" y="118" width="300" height="72" rx="18" fill="#f5b942" fill-opacity="0.16" stroke="#f5b942" stroke-width="8"/><circle cx="146" cy="154" r="18" fill="url(#node)"/><rect x="182" y="144" width="190" height="20" rx="10" fill="#f5b942" fill-opacity="0.55"/><rect x="106" y="218" width="240" height="72" rx="18" fill="#f5b942" fill-opacity="0.16" stroke="#f5b942" stroke-width="8"/><circle cx="146" cy="254" r="18" fill="url(#node)"/><rect x="182" y="244" width="130" height="20" rx="10" fill="#f5b942" fill-opacity="0.55"/><rect x="106" y="318" width="270" height="72" rx="18" fill="#f5b942" fill-opacity="0.16" stroke="#f5b942" stroke-width="8"/><circle cx="146" cy="354" r="18" fill="url(#node)"/><rect x="182" y="344" width="160" height="20" rx="10" fill="#f5b942" fill-opacity="0.55"/></g><text x="560" y="228" font-family="Helvetica Neue, Helvetica, Arial, sans-serif" font-size="44" font-weight="600" letter-spacing="14" fill="#f5b942">SWARM CONTROL</text><text x="556" y="330" font-family="Helvetica Neue, Helvetica, Arial, sans-serif" font-size="112" font-weight="700" fill="#ffffff">Tasks</text></svg>